<svg width="47" height="39" viewBox="0 0 47 39" fill="none" xmlns="http://www.w3.org/2000/svg">
<path fill-rule="evenodd" clip-rule="evenodd" d="M6.40909 4.33333C5.23897 4.33333 4.27273 5.31328 4.27273 6.5V32.5C4.27273 33.6867 5.23897 34.6667 6.40909 34.6667H40.5909C41.761 34.6667 42.7273 33.6867 42.7273 32.5V6.5C42.7273 5.31328 41.761 4.33333 40.5909 4.33333H6.40909ZM0 6.5C0 2.92005 2.87921 0 6.40909 0H40.5909C44.1208 0 47 2.92005 47 6.5V32.5C47 36.08 44.1208 39 40.5909 39H6.40909C2.87921 39 0 36.08 0 32.5V6.5Z" fill="#3485FF"/>
<path fill-rule="evenodd" clip-rule="evenodd" d="M0.386367 5.90064C1.06298 4.94548 2.39506 4.71319 3.36164 5.3818L23.5 19.312L43.6384 5.3818C44.6049 4.71319 45.937 4.94548 46.6136 5.90064C47.2902 6.8558 47.0552 8.17213 46.0886 8.84075L24.7251 23.6184C23.9895 24.1272 23.0105 24.1272 22.2749 23.6184L0.911416 8.84075C-0.0551729 8.17213 -0.290245 6.8558 0.386367 5.90064Z" fill="#3485FF"/>
</svg>
