<svg width="28" height="47" viewBox="0 0 28 47" fill="none" xmlns="http://www.w3.org/2000/svg">
<path fill-rule="evenodd" clip-rule="evenodd" d="M10.2466 3.75436C12.6702 1.35048 15.9572 0 19.3846 0H25.8461C27.0357 0 28 0.956483 28 2.13636V10.6818C28 11.8617 27.0357 12.8182 25.8461 12.8182H19.3846V17.0909H25.8461C26.5094 17.0909 27.1356 17.394 27.5438 17.9125C27.952 18.4311 28.0965 19.1072 27.9357 19.7454L25.7818 28.2909C25.5421 29.2419 24.6806 29.9091 23.6923 29.9091H19.3846V44.8636C19.3846 46.0435 18.4203 47 17.2308 47H8.61538C7.42584 47 6.46153 46.0435 6.46153 44.8636V29.9091H2.15384C0.964309 29.9091 0 28.9526 0 27.7727V19.2273C0 18.0474 0.964309 17.0909 2.15384 17.0909H6.46153V12.8182C6.46153 9.41859 7.82307 6.15823 10.2466 3.75436ZM19.3846 4.27273C17.0997 4.27273 14.9083 5.17305 13.2926 6.77563C11.6769 8.37822 10.7692 10.5518 10.7692 12.8182V19.2273C10.7692 20.4072 9.80491 21.3636 8.61538 21.3636H4.30769V25.6364H8.61538C9.80491 25.6364 10.7692 26.5928 10.7692 27.7727V42.7273H15.0769V27.7727C15.0769 26.5928 16.0412 25.6364 17.2308 25.6364H22.0106L23.0875 21.3636H17.2308C16.0412 21.3636 15.0769 20.4072 15.0769 19.2273V12.8182C15.0769 11.685 15.5308 10.5982 16.3386 9.79691C17.1465 8.99562 18.2421 8.54545 19.3846 8.54545H23.6923V4.27273H19.3846Z" fill="#3485FF"/>
</svg>
