<svg width="44" height="45" viewBox="0 0 44 45" fill="none" xmlns="http://www.w3.org/2000/svg">
<path d="M42.9987 33.1938V39.667C43.0011 40.2679 42.8806 40.8628 42.645 41.4134C42.4094 41.964 42.0638 42.4582 41.6305 42.8645C41.1971 43.2707 40.6854 43.58 40.1283 43.7725C39.5712 43.9651 38.9808 44.0366 38.3951 43.9825C31.8969 43.261 25.6549 40.9922 20.1707 37.3582C15.0684 34.0453 10.7425 29.6252 7.50021 24.4117C3.93131 18.7826 1.71031 12.3737 1.01714 5.70409C0.964369 5.1074 1.03377 4.50603 1.22093 3.93825C1.40808 3.37047 1.70889 2.84873 2.1042 2.40624C2.49951 1.96376 2.98065 1.61022 3.51701 1.36815C4.05336 1.12608 4.63317 1.00077 5.21952 1.00021H11.5548C12.5796 0.989903 13.5732 1.36072 14.3502 2.04355C15.1273 2.72638 15.6348 3.67462 15.7783 4.71153C16.0457 6.78311 16.5416 8.81713 17.2565 10.7748C17.5406 11.5471 17.6021 12.3864 17.4337 13.1934C17.2653 14.0003 16.874 14.741 16.3062 15.3276L13.6243 18.068C16.6305 23.47 21.0079 27.9428 26.2948 31.0144L28.9767 28.2741C29.5509 27.694 30.2757 27.2942 31.0655 27.1221C31.8552 26.95 32.6766 27.0128 33.4325 27.3031C35.3484 28.0336 37.3391 28.5403 39.3665 28.8135C40.3923 28.9614 41.3292 29.4894 41.9989 30.297C42.6686 31.1046 43.0244 32.1355 42.9987 33.1938Z" fill="#3485FF" stroke="#F5F5F5" stroke-width="2" stroke-linecap="round" stroke-linejoin="round"/>
</svg>
