<svg width="43" height="43" viewBox="0 0 43 43" fill="none" xmlns="http://www.w3.org/2000/svg">
<path d="M31.5378 25.8215C31.1058 25.6067 28.2976 24.3184 27.8656 24.1036C27.4335 23.8889 27.0015 23.8889 26.5695 24.3184C26.1375 24.7478 25.2734 26.0362 24.8414 26.4657C24.6254 26.8951 24.1934 26.8951 23.7613 26.6804C22.2493 26.0362 20.7372 25.1773 19.4411 24.1036C18.361 23.03 17.281 21.7416 16.4169 20.4532C16.2009 20.0237 16.4169 19.5943 16.6329 19.3795C16.8489 19.1648 17.065 18.7353 17.497 18.5206C17.713 18.3059 17.929 17.8764 17.929 17.6617C18.145 17.4469 18.145 17.0175 17.929 16.8027C17.713 16.588 16.6329 14.0112 16.2009 12.9376C15.9849 11.4345 15.5529 11.4345 15.1209 11.4345C14.9048 11.4345 14.4728 11.4345 14.0408 11.4345C13.6088 11.4345 12.9607 11.8639 12.7447 12.0787C11.4486 13.367 10.8006 14.8702 10.8006 16.588C11.0166 18.5206 11.6647 20.4532 12.9607 22.171C15.3369 25.6067 18.361 28.3983 22.0332 30.1161C23.1133 30.5456 23.9774 30.975 25.0574 31.1898C26.1375 31.6192 27.2175 31.6192 28.5136 31.4045C30.0257 31.1898 31.3218 30.1161 32.1858 28.8277C32.6178 27.9688 32.6178 27.1099 32.4018 26.2509C32.4018 26.2509 31.9698 26.0362 31.5378 25.8215ZM36.9381 6.2809C28.5136 -2.09363 14.9048 -2.09363 6.48036 6.2809C-0.432024 13.1523 -1.7281 23.6742 3.02417 32.0487L0 43L11.4486 39.9938C14.6888 41.7116 18.145 42.5705 21.6012 42.5705C33.4819 42.5705 42.9864 33.1223 42.9864 21.3121C43.2024 15.7291 40.8263 10.3608 36.9381 6.2809ZM31.1058 36.3433C28.2976 38.0612 25.0574 39.1348 21.6012 39.1348C18.361 39.1348 15.3369 38.2759 12.5287 36.7728L11.8807 36.3433L5.18429 38.0612L6.91239 31.6192L6.48036 30.975C1.29607 22.3858 3.88822 11.6492 12.3127 6.2809C20.7372 0.91261 31.5378 3.70412 36.7221 11.8639C41.9064 20.2385 39.5302 31.1898 31.1058 36.3433Z" fill="#3485FF"/>
</svg>
